<svg width="466" height="508" fill="none" xmlns="http://www.w3.org/2000/svg">
  <path fill="#fff" d="M0 0h466v508H0z"/>
  <path d="M283 270v-14.286c0-1.876-.323-3.734-.951-5.467a14.572 14.572 0 0 0-2.71-4.635c-1.161-1.326-2.539-2.378-4.055-3.096a11.16 11.16 0 0 0-4.784-1.088h-50.003c-16.577 0-32.474-7.525-44.195-20.921-11.721-13.395-18.306-31.563-18.306-50.507 0-9.38 1.616-18.668 4.757-27.335 3.141-8.666 7.745-16.54 13.549-23.173 5.804-6.633 12.694-11.894 20.277-15.483 7.582-3.59 15.71-5.437 23.918-5.437h49.999a11.16 11.16 0 0 0 4.785-1.086 12.534 12.534 0 0 0 4.057-3.097 14.585 14.585 0 0 0 2.711-4.635c.628-1.734.951-3.592.951-5.468V70h-62.501c-11.49 0-22.868 2.587-33.484 7.612-10.616 5.026-20.262 12.392-28.387 21.677-8.125 9.286-14.571 20.31-18.968 32.443C135.263 143.864 133 156.868 133 170c0 26.521 9.219 51.957 25.628 70.71 16.409 18.754 38.665 29.29 61.871 29.29H283Z" fill="url(#a)"/>
  <path d="M182.996 170c0 11.366 3.951 22.267 10.983 30.303 7.032 8.038 16.57 12.552 26.516 12.552H283c6.631 0 12.989 3.011 17.677 8.369 4.688 5.358 7.323 12.625 7.323 20.203v28.572h25v-28.571c0-15.155-5.268-29.689-14.644-40.406-9.378-10.716-22.095-16.736-35.356-16.736h-62.503c-3.316 0-6.495-1.505-8.839-4.184-2.345-2.679-3.662-6.313-3.662-10.102 0-3.789 1.317-7.422 3.662-10.102 2.344-2.679 5.523-4.184 8.839-4.184H283c13.261 0 25.978-6.02 35.356-16.737C327.732 128.261 333 113.727 333 98.572V70h-25.004v28.572c0 7.576-2.633 14.843-7.321 20.201-4.687 5.358-11.045 8.368-17.675 8.369h-62.503c-4.925 0-9.802 1.108-14.352 3.262-4.549 2.154-8.684 5.311-12.166 9.29-3.482 3.98-6.244 8.705-8.129 13.905-1.884 5.2-2.854 10.773-2.854 16.401Z" fill="url(#b)"/>
  <path fill="#fff" d="M70 295h326v143H70z"/>
  <path d="M94.11 379.703c-1.25 0-2.61-.109-4.079-.328-1.437-.187-2.89-.609-4.36-1.266-1.437-.656-2.827-1.578-4.171-2.765-1.313-1.219-2.484-2.813-3.516-4.782-1-1.968-1.812-4.39-2.437-7.265-.594-2.906-.89-6.359-.89-10.359v-28.36c0-4.031.312-7.469.937-10.312.625-2.875 1.453-5.282 2.484-7.219 1.031-1.969 2.219-3.531 3.563-4.688 1.343-1.156 2.734-2.031 4.171-2.625 1.438-.625 2.86-1.031 4.266-1.218a30.88 30.88 0 0 1 3.984-.282c3.188 0 5.844.454 7.969 1.36 2.157.875 3.875 2.094 5.157 3.656 1.312 1.531 2.234 3.328 2.765 5.391.563 2.062.844 4.25.844 6.562 0 1.719-.094 3.313-.281 4.781a57.544 57.544 0 0 1-.75 4.782h-9.844v-4.078c0-4.407-.484-7.704-1.453-9.891-.969-2.188-2.39-3.281-4.266-3.281-1.125 0-2.11.218-2.953.656-.844.437-1.547 1.187-2.11 2.25-.562 1.031-1 2.406-1.312 4.125-.281 1.719-.422 3.859-.422 6.422v36.562c0 2.5.11 4.578.328 6.235.25 1.656.641 2.984 1.172 3.984.531 1 1.219 1.719 2.063 2.156.875.406 1.922.61 3.14.61.782 0 1.532-.172 2.25-.516.72-.375 1.344-.938 1.875-1.688.563-.781 1-1.75 1.313-2.906.344-1.187.515-2.578.515-4.172v-7.828h11.11v7.406c0 6.438-1.469 11.188-4.406 14.25-2.938 3.063-7.157 4.61-12.657 4.641Zm42.14 0c-1.375 0-2.781-.109-4.219-.328a13.638 13.638 0 0 1-4.125-1.359c-1.312-.688-2.562-1.672-3.75-2.954-1.156-1.281-2.172-2.968-3.047-5.062-.875-2.094-1.562-4.672-2.062-7.734-.5-3.063-.75-6.719-.75-10.969v-10.125c0-4.188.25-7.766.75-10.734.531-3 1.234-5.516 2.109-7.547.906-2.032 1.953-3.641 3.141-4.829 1.187-1.218 2.437-2.14 3.75-2.765a13.414 13.414 0 0 1 4.125-1.266 26.782 26.782 0 0 1 4.125-.328c1.281 0 2.609.094 3.984.281 1.375.188 2.719.594 4.031 1.219 1.313.594 2.547 1.5 3.704 2.719 1.187 1.187 2.218 2.797 3.093 4.828.907 2.031 1.61 4.562 2.11 7.594.531 3 .797 6.609.797 10.828v10.125c0 4.187-.266 7.797-.797 10.828-.531 3.031-1.25 5.594-2.157 7.687-.906 2.094-1.953 3.797-3.14 5.11-1.188 1.281-2.438 2.281-3.75 3-1.313.719-2.656 1.187-4.031 1.406-1.344.25-2.641.375-3.891.375Zm.094-9.141c1.062 0 1.953-.265 2.672-.796.75-.563 1.343-1.469 1.781-2.719.469-1.25.797-2.891.984-4.922.219-2.063.328-4.609.328-7.641v-15.89c0-3.032-.109-5.578-.328-7.641-.187-2.062-.515-3.719-.984-4.969-.438-1.281-1.031-2.203-1.781-2.765-.719-.563-1.61-.844-2.672-.844-1.125 0-2.078.281-2.86.844-.75.562-1.375 1.484-1.875 2.765-.5 1.25-.859 2.907-1.078 4.969-.219 2.063-.328 4.609-.328 7.641v15.89c0 3.032.109 5.578.328 7.641.219 2.031.578 3.672 1.078 4.922.5 1.25 1.125 2.156 1.875 2.719.782.531 1.735.796 2.86.796Zm29.531-47.671h-5.016v-8.438h6.047l2.391-16.734h8.437v16.734h10.313v8.438h-10.313v41.062c0 1.406.125 2.547.375 3.422.282.844.657 1.516 1.125 2.016a3.483 3.483 0 0 0 1.641.937 8.101 8.101 0 0 0 1.969.234c1.156 0 2.172-.14 3.047-.421a11.327 11.327 0 0 0 2.578-1.172v6.562c-.688.844-1.438 1.531-2.25 2.063a13.17 13.17 0 0 1-2.438 1.312c-.843.313-1.703.532-2.578.656-.875.126-1.734.188-2.578.188-1.656 0-3.25-.219-4.781-.656-1.532-.438-2.891-1.266-4.078-2.485-1.188-1.25-2.141-2.968-2.86-5.156-.687-2.187-1.031-5.031-1.031-8.531v-40.031Zm45.891 56.812c-2.782 0-5.25-.515-7.407-1.547-2.125-1.031-3.921-2.64-5.39-4.828-1.469-2.187-2.578-4.984-3.328-8.39-.75-3.438-1.125-7.563-1.125-12.376v-12.187c0-4.094.296-7.594.89-10.5.625-2.937 1.422-5.391 2.391-7.359 1-2 2.141-3.578 3.422-4.735 1.312-1.156 2.656-2.031 4.031-2.625 1.375-.625 2.734-1.015 4.078-1.172a28.342 28.342 0 0 1 3.797-.281c2.125 0 4.172.328 6.141.985 1.968.624 3.703 1.718 5.203 3.281 1.5 1.531 2.687 3.593 3.562 6.187.907 2.594 1.36 5.828 1.36 9.703a57.1 57.1 0 0 1-.141 3.985 81.691 81.691 0 0 1-.281 3.984 47.037 47.037 0 0 1-.516 3.75 61.28 61.28 0 0 1-.609 3.375h-21.422v6.563c0 2.812.109 5.187.328 7.125.219 1.906.578 3.453 1.078 4.64.531 1.157 1.234 2 2.11 2.531.906.5 2.031.75 3.374.75.719 0 1.422-.14 2.11-.421.687-.313 1.281-.813 1.781-1.5.531-.688.953-1.594 1.266-2.719.312-1.156.469-2.578.469-4.266v-2.015h9.89v2.484c0 6.125-1.469 10.594-4.406 13.406-2.906 2.781-7.125 4.172-12.656 4.172Zm6.562-38.719c.031-.343.063-.796.094-1.359.031-.594.047-1.203.047-1.828.031-.625.047-1.235.047-1.828v-1.594c0-4.25-.5-7.313-1.5-9.187-1-1.876-2.485-2.813-4.454-2.813-1.031 0-1.937.25-2.718.75-.782.469-1.422 1.281-1.922 2.437-.5 1.126-.875 2.626-1.125 4.5-.25 1.876-.375 4.204-.375 6.985v3.937h11.906Zm21.094-26.531h8.672l1.031 6.563c1.313-2.438 2.813-4.266 4.5-5.485 1.719-1.219 3.469-1.828 5.25-1.828 3.406 0 5.922 1.047 7.547 3.141 1.625 2.094 2.437 5.234 2.437 9.422a16 16 0 0 1-.14 1.922 22.75 22.75 0 0 1-.328 2.296 23.379 23.379 0 0 1-.516 2.391c-.187.781-.391 1.5-.609 2.156h-8.25v-6c0-1.312-.094-2.39-.282-3.234-.156-.844-.375-1.516-.656-2.016-.281-.531-.609-.89-.984-1.078a2.377 2.377 0 0 0-1.219-.328c-.937 0-1.813.313-2.625.937-.781.594-1.438 1.438-1.969 2.532V379h-11.859v-64.547Zm34.406 51.047c0-1.406.125-2.766.375-4.078.281-1.313.547-2.36.797-3.141h8.344c0 2.344.109 4.313.328 5.907.25 1.562.64 2.812 1.172 3.75.531.937 1.234 1.609 2.109 2.015.906.406 2 .609 3.281.609 1.782 0 3.078-.5 3.891-1.5.813-1 1.219-2.156 1.219-3.468 0-.688-.094-1.344-.282-1.969a9.654 9.654 0 0 0-.796-1.875 13.992 13.992 0 0 0-1.266-1.969c-.5-.656-1.062-1.375-1.688-2.156l-8.671-10.219a141.895 141.895 0 0 1-3.282-4.265 42.487 42.487 0 0 1-2.765-4.5 29.793 29.793 0 0 1-1.922-4.875c-.469-1.688-.703-3.469-.703-5.344 0-2.5.422-4.672 1.265-6.516.875-1.844 2.032-3.375 3.469-4.594 1.469-1.218 3.156-2.124 5.063-2.718 1.906-.594 3.922-.891 6.046-.891 2.344 0 4.454.281 6.329.844 1.875.562 3.484 1.406 4.828 2.531 1.343 1.125 2.375 2.531 3.093 4.219.719 1.656 1.079 3.594 1.079 5.812 0 1.5-.141 2.953-.422 4.36-.25 1.406-.5 2.609-.75 3.609h-8.203c-.032-2.125-.125-3.984-.282-5.578-.156-1.594-.453-2.906-.89-3.938-.406-1.062-.985-1.859-1.735-2.39-.718-.531-1.671-.797-2.859-.797-1.031 0-1.891.172-2.578.516a4.62 4.62 0 0 0-1.688 1.265 5.3 5.3 0 0 0-.89 1.782 8.682 8.682 0 0 0-.235 2.015c0 1.5.36 2.891 1.079 4.172.718 1.281 1.671 2.672 2.859 4.172l9.469 11.109a90.484 90.484 0 0 1 2.39 3.094 32.505 32.505 0 0 1 2.578 3.984 26.094 26.094 0 0 1 2.063 4.735c.562 1.719.844 3.515.844 5.39 0 2.282-.36 4.36-1.079 6.235-.718 1.844-1.781 3.422-3.187 4.734-1.406 1.313-3.141 2.328-5.203 3.047-2.031.719-4.36 1.078-6.984 1.078-2.157 0-4.188-.234-6.094-.703-1.906-.5-3.563-1.297-4.969-2.391-1.406-1.125-2.516-2.593-3.328-4.406-.813-1.812-1.219-4.047-1.219-6.703Zm41.531-51.047h11.86v48.516c0 2.843.437 4.828 1.312 5.953.875 1.094 2.157 1.64 3.844 1.64 1.187 0 2.344-.328 3.469-.984 1.125-.656 2.14-1.594 3.047-2.812v-52.313h11.859V379h-9.047l-1.172-6.891h-.047c-.937 1.469-1.937 2.703-3 3.703a14.41 14.41 0 0 1-3.281 2.344 14.311 14.311 0 0 1-3.469 1.219c-1.187.25-2.375.375-3.562.375-3.781 0-6.703-1.312-8.766-3.938-2.031-2.624-3.047-6.593-3.047-11.906v-49.453Zm45.282 51.047c0-1.406.125-2.766.375-4.078.281-1.313.546-2.36.796-3.141h8.344c0 2.344.11 4.313.328 5.907.25 1.562.641 2.812 1.172 3.75.532.937 1.235 1.609 2.11 2.015.906.406 2 .609 3.281.609 1.781 0 3.078-.5 3.891-1.5.812-1 1.218-2.156 1.218-3.468 0-.688-.094-1.344-.281-1.969a9.598 9.598 0 0 0-.797-1.875 13.992 13.992 0 0 0-1.266-1.969c-.5-.656-1.062-1.375-1.687-2.156l-8.672-10.219a140.226 140.226 0 0 1-3.281-4.265 42.663 42.663 0 0 1-2.766-4.5 29.883 29.883 0 0 1-1.922-4.875 19.914 19.914 0 0 1-.703-5.344c0-2.5.422-4.672 1.266-6.516.875-1.844 2.031-3.375 3.469-4.594 1.468-1.218 3.156-2.124 5.062-2.718 1.906-.594 3.922-.891 6.047-.891 2.344 0 4.453.281 6.328.844 1.875.562 3.485 1.406 4.828 2.531 1.344 1.125 2.375 2.531 3.094 4.219.719 1.656 1.078 3.594 1.078 5.812 0 1.5-.141 2.953-.422 4.36-.25 1.406-.5 2.609-.75 3.609h-8.203c-.031-2.125-.125-3.984-.281-5.578-.156-1.594-.453-2.906-.891-3.938-.406-1.062-.984-1.859-1.734-2.39-.719-.531-1.672-.797-2.86-.797-1.031 0-1.89.172-2.578.516-.687.312-1.25.734-1.687 1.265a5.32 5.32 0 0 0-.891 1.782 8.682 8.682 0 0 0-.234 2.015c0 1.5.359 2.891 1.078 4.172.719 1.281 1.672 2.672 2.859 4.172l9.469 11.109a90.372 90.372 0 0 1 2.391 3.094 32.623 32.623 0 0 1 2.578 3.984 26.092 26.092 0 0 1 2.062 4.735c.563 1.719.844 3.515.844 5.39 0 2.282-.359 4.36-1.078 6.235-.719 1.844-1.781 3.422-3.187 4.734-1.407 1.313-3.141 2.328-5.204 3.047-2.031.719-4.359 1.078-6.984 1.078-2.156 0-4.188-.234-6.094-.703-1.906-.5-3.562-1.297-4.968-2.391-1.407-1.125-2.516-2.593-3.329-4.406-.812-1.812-1.218-4.047-1.218-6.703ZM91.11 428v-28h2.96v28h-2.96Zm19.91 0v-25.44h-9.84V400h22.64v2.56h-9.84V428h-2.96Zm44.957.24c-2.107 0-4.053-.347-5.84-1.04-1.787-.72-3.333-1.72-4.64-3a14.025 14.025 0 0 1-3.08-4.52c-.72-1.733-1.08-3.627-1.08-5.68s.36-3.947 1.08-5.68a14.025 14.025 0 0 1 3.08-4.52 13.973 13.973 0 0 1 4.68-2.96c1.787-.72 3.733-1.08 5.84-1.08 2.027 0 3.933.347 5.72 1.04 1.787.667 3.293 1.68 4.52 3.04l-1.88 1.88c-1.147-1.173-2.413-2.013-3.8-2.52-1.387-.533-2.88-.8-4.48-.8-1.68 0-3.24.293-4.68.88a10.776 10.776 0 0 0-3.76 2.44 11.437 11.437 0 0 0-2.52 3.68c-.587 1.387-.88 2.92-.88 4.6 0 1.68.293 3.227.88 4.64a12.043 12.043 0 0 0 2.52 3.68 11.594 11.594 0 0 0 3.76 2.44c1.44.56 3 .84 4.68.84 1.6 0 3.093-.267 4.48-.8 1.387-.533 2.653-1.387 3.8-2.56l1.88 1.88c-1.227 1.36-2.733 2.387-4.52 3.08-1.787.693-3.707 1.04-5.76 1.04Zm26.013-.04c-2.027 0-3.854-.453-5.48-1.36-1.6-.933-2.867-2.2-3.8-3.8-.934-1.627-1.4-3.48-1.4-5.56 0-2.107.466-3.96 1.4-5.56.933-1.6 2.2-2.853 3.8-3.76 1.6-.907 3.426-1.36 5.48-1.36 2.08 0 3.92.453 5.52 1.36a9.729 9.729 0 0 1 3.8 3.76c.933 1.6 1.4 3.453 1.4 5.56 0 2.08-.467 3.933-1.4 5.56-.907 1.6-2.174 2.867-3.8 3.8-1.627.907-3.467 1.36-5.52 1.36Zm0-2.52c1.52 0 2.866-.333 4.04-1a7.356 7.356 0 0 0 2.76-2.88c.693-1.253 1.04-2.693 1.04-4.32 0-1.653-.347-3.093-1.04-4.32-.667-1.227-1.587-2.173-2.76-2.84-1.174-.693-2.507-1.04-4-1.04-1.494 0-2.827.347-4 1.04-1.174.667-2.107 1.613-2.8 2.84-.694 1.227-1.04 2.667-1.04 4.32 0 1.627.346 3.067 1.04 4.32.693 1.227 1.626 2.187 2.8 2.88 1.173.667 2.493 1 3.96 1Zm29.638-18.88c1.706 0 3.2.333 4.48 1 1.306.64 2.32 1.627 3.04 2.96.746 1.333 1.12 3.013 1.12 5.04V428h-2.84v-11.92c0-2.213-.56-3.88-1.68-5-1.094-1.147-2.64-1.72-4.64-1.72-1.494 0-2.8.307-3.92.92-1.094.587-1.947 1.453-2.56 2.6-.587 1.12-.88 2.48-.88 4.08V428h-2.84v-21h2.72v5.76l-.44-1.08c.666-1.52 1.733-2.707 3.2-3.56 1.466-.88 3.213-1.32 5.24-1.32Zm24.351 21.4c-1.733 0-3.373-.24-4.92-.72-1.547-.507-2.76-1.133-3.64-1.88l1.28-2.24c.853.64 1.947 1.2 3.28 1.68 1.333.453 2.733.68 4.2.68 2 0 3.44-.307 4.32-.92.88-.64 1.32-1.48 1.32-2.52 0-.773-.253-1.373-.76-1.8-.48-.453-1.12-.787-1.92-1-.8-.24-1.693-.44-2.68-.6a58.099 58.099 0 0 1-2.96-.56c-.96-.213-1.84-.52-2.64-.92a5.56 5.56 0 0 1-1.96-1.72c-.48-.72-.72-1.68-.72-2.88 0-1.147.32-2.173.96-3.08.64-.907 1.573-1.613 2.8-2.12 1.253-.533 2.773-.8 4.56-.8 1.36 0 2.72.187 4.08.56 1.36.347 2.48.813 3.36 1.4l-1.24 2.28a9.228 9.228 0 0 0-3-1.36 12.035 12.035 0 0 0-3.2-.44c-1.893 0-3.293.333-4.2 1-.88.64-1.32 1.467-1.32 2.48 0 .8.24 1.427.72 1.88.507.453 1.16.813 1.96 1.08.827.24 1.72.44 2.68.6.987.16 1.96.36 2.92.6.987.213 1.88.52 2.68.92.827.373 1.48.92 1.96 1.64.507.693.76 1.613.76 2.76 0 1.227-.347 2.293-1.04 3.2-.667.88-1.653 1.573-2.96 2.08-1.28.48-2.84.72-4.68.72Zm24.971 0c-1.787 0-3.347-.333-4.68-1-1.333-.667-2.373-1.667-3.12-3-.72-1.333-1.08-3-1.08-5V407h2.84v11.88c0 2.24.547 3.933 1.64 5.08 1.12 1.12 2.68 1.68 4.68 1.68 1.467 0 2.733-.293 3.8-.88a5.94 5.94 0 0 0 2.48-2.64c.587-1.147.88-2.52.88-4.12v-11h2.84v21h-2.72v-5.76l.44 1.04c-.667 1.547-1.707 2.76-3.12 3.64-1.387.853-3.013 1.28-4.88 1.28Zm20.595-.2v-29.68h2.84V428h-2.84Zm19.9.2c-1.974 0-3.494-.533-4.56-1.6-1.067-1.067-1.6-2.573-1.6-4.52v-19.72h2.84v19.56c0 1.227.306 2.173.92 2.84.64.667 1.546 1 2.72 1 1.253 0 2.293-.36 3.12-1.08l1 2.04c-.56.507-1.24.88-2.04 1.12-.774.24-1.574.36-2.4.36Zm-9.92-18.84V407h13v2.36h-13Zm21.93 18.64v-21h2.84v21h-2.84Zm1.44-25.64c-.587 0-1.08-.2-1.48-.6-.4-.4-.6-.88-.6-1.44 0-.56.2-1.027.6-1.4.4-.4.893-.6 1.48-.6.586 0 1.08.187 1.48.56.4.373.6.84.6 1.4 0 .587-.2 1.08-.6 1.48-.374.4-.867.6-1.48.6Zm22.422 4.44c1.706 0 3.2.333 4.48 1 1.306.64 2.32 1.627 3.04 2.96.746 1.333 1.12 3.013 1.12 5.04V428h-2.84v-11.92c0-2.213-.56-3.88-1.68-5-1.094-1.147-2.64-1.72-4.64-1.72-1.494 0-2.8.307-3.92.92-1.094.587-1.947 1.453-2.56 2.6-.587 1.12-.88 2.48-.88 4.08V428h-2.84v-21h2.72v5.76l-.44-1.08c.666-1.52 1.733-2.707 3.2-3.56 1.466-.88 3.213-1.32 5.24-1.32Zm27.671 29.16c-1.92 0-3.76-.28-5.52-.84-1.76-.56-3.187-1.36-4.28-2.4l1.44-2.16c.987.88 2.2 1.573 3.64 2.08 1.467.533 3.013.8 4.64.8 2.667 0 4.627-.627 5.88-1.88 1.253-1.227 1.88-3.147 1.88-5.76v-5.24l.4-3.6-.28-3.6V407h2.72v18.44c0 3.627-.893 6.28-2.68 7.96-1.76 1.707-4.373 2.56-7.84 2.56Zm-.52-8.76c-2 0-3.8-.427-5.4-1.28a9.964 9.964 0 0 1-3.8-3.64c-.907-1.547-1.36-3.32-1.36-5.32 0-2 .453-3.76 1.36-5.28a9.67 9.67 0 0 1 3.8-3.6c1.6-.853 3.4-1.28 5.4-1.28 1.867 0 3.547.387 5.04 1.16 1.493.773 2.68 1.92 3.56 3.44.88 1.52 1.32 3.373 1.32 5.56 0 2.187-.44 4.04-1.32 5.56-.88 1.52-2.067 2.68-3.56 3.48-1.493.8-3.173 1.2-5.04 1.2Zm.28-2.52c1.547 0 2.92-.32 4.12-.96a7.522 7.522 0 0 0 2.84-2.72c.693-1.173 1.04-2.52 1.04-4.04s-.347-2.853-1.04-4a7.226 7.226 0 0 0-2.84-2.68c-1.2-.667-2.573-1-4.12-1-1.52 0-2.893.333-4.12 1a7.226 7.226 0 0 0-2.84 2.68c-.667 1.147-1 2.48-1 4s.333 2.867 1 4.04a7.522 7.522 0 0 0 2.84 2.72c1.227.64 2.6.96 4.12.96Z" fill="#1E1E1E"/>
  <defs>
    <linearGradient id="a" x1="163.2" y1="170" x2="419.801" y2="170" gradientUnits="userSpaceOnUse">
      <stop stop-color="#F54A48"/>
      <stop offset="1" stop-color="#FA982F"/>
    </linearGradient>
    <linearGradient id="b" x1="155.545" y1="169.999" x2="348.15" y2="169.999" gradientUnits="userSpaceOnUse">
      <stop stop-color="#F54A48"/>
      <stop offset="1" stop-color="#FA982F"/>
    </linearGradient>
  </defs>
</svg>
