<svg width="200" height="200" viewBox="0 0 200 200" fill="none" xmlns="http://www.w3.org/2000/svg">
    <path d="M150 200V185.714C150 183.838 149.677 181.98 149.049 180.247C148.421 178.514 147.5 176.939 146.339 175.612C145.178 174.286 143.8 173.234 142.284 172.516C140.767 171.798 139.142 171.428 137.5 171.428H87.4965C70.9204 171.428 55.0233 163.903 43.302 150.507C31.5809 137.112 24.9959 118.944 24.9956 100C24.9956 90.6198 26.6123 81.3315 29.7533 72.6654C32.8943 63.9992 37.4981 56.125 43.3018 49.4922C49.1056 42.8594 55.9956 37.5982 63.5786 34.0086C71.1615 30.419 79.2888 28.5716 87.4965 28.5717H137.496C139.138 28.5723 140.764 28.2032 142.281 27.4856C143.798 26.7678 145.177 25.7156 146.338 24.389C147.499 23.0623 148.42 21.4873 149.049 19.7538C149.677 18.0203 150 16.1623 150 14.2859V0H87.4993C76.0087 -7.53714e-10 64.6306 2.58658 54.0145 7.61206C43.3986 12.6375 33.7527 20.0035 25.6277 29.2893C17.5026 38.5753 11.0574 49.5992 6.66022 61.7318C2.26303 73.8643 -0.000123112 86.8679 5.02301e-09 100C-4.35165e-09 126.521 9.21861 151.957 25.6279 170.71C42.0372 189.464 64.293 200 87.4993 200H150Z"
          fill="url(#paint0_linear_2_16)"/>
    <path d="M49.996 100C49.996 111.366 53.9468 122.267 60.9792 130.303C68.0115 138.341 77.5495 142.855 87.4947 142.855H150C156.631 142.855 162.989 145.866 167.677 151.224C172.365 156.582 175 163.849 175 171.427V199.999H200V171.428C200 156.273 194.732 141.739 185.356 131.022C175.978 120.306 163.261 114.286 150 114.286H87.4965C84.1813 114.286 81.0019 112.781 78.6575 110.102C76.3133 107.423 74.9964 103.789 74.9964 100C74.9964 96.2111 76.3133 92.5775 78.6575 89.8983C81.0019 87.2192 84.1813 85.7141 87.4965 85.7141H150C163.261 85.7141 175.978 79.6938 185.356 68.9775C194.732 58.2612 200 43.7268 200 28.5717V0H174.996V28.5717C174.996 36.1484 172.363 43.4148 167.675 48.7727C162.988 54.1306 156.63 57.1412 150 57.1424H87.4965C82.5718 57.1421 77.6953 58.2504 73.1454 60.4041C68.5955 62.5578 64.4614 65.7148 60.9792 69.6944C57.4969 73.6742 54.7346 78.3989 52.8501 83.5988C50.9656 88.7987 49.9958 94.3718 49.996 100Z"
          fill="url(#paint1_linear_2_16)"/>
    <defs>
        <linearGradient id="paint0_linear_2_16" x1="30.2" y1="100" x2="286.801" y2="100" gradientUnits="userSpaceOnUse">
            <stop stop-color="#F54A48"/>
            <stop offset="1" stop-color="#FA982F"/>
        </linearGradient>
        <linearGradient id="paint1_linear_2_16" x1="22.5453" y1="99.9995" x2="215.15" y2="99.9995"
                        gradientUnits="userSpaceOnUse">
            <stop stop-color="#F54A48"/>
            <stop offset="1" stop-color="#FA982F"/>
        </linearGradient>
    </defs>
</svg>
