<?xml version="1.0" standalone="no"?>
<!DOCTYPE svg PUBLIC "-//W3C//DTD SVG 20010904//EN"
 "http://www.w3.org/TR/2001/REC-SVG-20010904/DTD/svg10.dtd">
<svg version="1.0" xmlns="http://www.w3.org/2000/svg"
 width="583.000000pt" height="583.000000pt" viewBox="0 0 583.000000 583.000000"
 preserveAspectRatio="xMidYMid meet">
<metadata>
Created by potrace 1.14, written by Peter Selinger 2001-2017
</metadata>
<g transform="translate(0.000000,583.000000) scale(0.100000,-0.100000)"
fill="#000000" stroke="none">
<path d="M639 5815 c-4 -1 -10 -68 -12 -115 -1 -30 -5 -58 -10 -61 -4 -3 -3
-18 2 -32 7 -17 7 -27 1 -27 -5 0 -7 -14 -3 -32 4 -21 3 -29 -5 -24 -7 4 -8
-2 -3 -21 5 -16 4 -38 0 -51 -6 -15 -5 -22 4 -22 8 0 7 -4 -3 -10 -8 -5 -11
-12 -8 -16 4 -4 3 -16 -3 -27 -8 -15 -8 -18 1 -12 9 6 9 2 1 -14 -8 -14 -8
-21 -1 -21 7 0 8 -6 2 -17 -4 -10 -8 -44 -8 -75 1 -32 -1 -58 -4 -58 -3 0 -6
-26 -6 -57 -1 -32 -3 -73 -7 -90 -3 -20 -1 -33 5 -33 7 0 7 -4 1 -12 -6 -7
-10 -34 -9 -61 1 -26 -1 -47 -4 -47 -3 0 -5 -17 -4 -37 1 -21 -2 -45 -6 -53
-5 -9 -5 -22 0 -30 5 -9 5 -19 -2 -27 -7 -9 -7 -13 1 -13 7 0 9 -5 5 -12 -5
-7 -9 -29 -10 -48 -1 -19 -5 -75 -9 -125 -12 -159 -13 -179 -15 -255 -2 -41
-7 -83 -12 -92 -5 -11 -5 -18 1 -18 10 0 9 -19 -2 -37 -5 -8 -3 -13 4 -13 8 0
8 -4 2 -12 -12 -16 -12 -447 0 -465 5 -8 3 -13 -4 -13 -10 0 -10 -3 -2 -11 8
-8 8 -20 3 -35 -6 -14 -6 -24 0 -24 8 0 4 -45 -6 -62 -3 -4 -2 -8 3 -8 4 0 8
-26 8 -58 0 -31 2 -61 5 -67 2 -5 5 -17 5 -25 0 -8 4 -20 8 -27 4 -6 3 -15 -3
-18 -8 -5 -8 -11 0 -20 8 -9 8 -15 0 -20 -6 -4 -7 -12 -1 -24 6 -10 11 -29 13
-44 2 -14 7 -29 11 -33 4 -4 3 -12 -3 -19 -6 -7 -4 -21 5 -38 10 -20 11 -27 2
-27 -8 0 -7 -3 2 -9 7 -5 10 -14 7 -20 -4 -6 -4 -11 1 -11 4 0 9 -12 10 -27 3
-58 7 -78 16 -90 5 -7 7 -13 4 -13 -3 0 -1 -15 4 -32 11 -38 21 -87 22 -105 0
-7 4 -13 9 -13 4 0 7 -3 7 -7 -1 -5 0 -10 1 -13 1 -3 3 -14 5 -25 7 -40 11
-55 17 -61 4 -3 4 -12 1 -20 -3 -8 1 -14 8 -14 7 0 10 -3 6 -6 -3 -4 0 -22 8
-40 8 -19 11 -34 8 -34 -3 0 0 -6 6 -13 6 -8 8 -17 4 -20 -3 -4 -2 -7 3 -7 5
0 10 -10 11 -22 1 -11 6 -24 10 -27 4 -3 9 -15 11 -26 1 -11 7 -29 11 -40 14
-30 24 -58 27 -74 1 -8 7 -17 12 -20 6 -3 12 -17 13 -31 2 -14 10 -31 17 -38
7 -8 10 -18 7 -23 -4 -5 -1 -9 4 -9 6 0 11 -9 11 -20 0 -11 5 -20 10 -20 6 0
10 -9 10 -19 0 -11 5 -23 10 -26 6 -3 10 -15 10 -26 0 -10 5 -19 10 -19 6 0
10 -7 10 -15 0 -8 5 -15 10 -15 6 0 10 -8 10 -19 0 -10 11 -30 24 -44 13 -14
22 -28 20 -30 -5 -4 34 -76 46 -87 3 -3 11 -16 18 -30 16 -33 33 -59 54 -84
10 -11 18 -25 18 -32 0 -6 7 -15 16 -18 8 -3 13 -10 10 -15 -4 -5 -3 -11 1
-13 17 -7 62 -76 55 -83 -4 -5 -2 -5 4 -2 6 3 17 -5 24 -18 7 -14 17 -25 22
-25 4 0 8 -5 8 -10 0 -6 11 -21 25 -34 13 -13 22 -26 18 -29 -3 -4 1 -7 10 -7
9 0 16 -4 14 -9 -3 -11 50 -71 63 -71 6 0 10 -5 10 -10 0 -6 25 -35 55 -65 30
-30 52 -55 48 -55 -4 0 10 -12 32 -27 22 -15 50 -36 62 -48 11 -11 45 -40 74
-65 28 -25 62 -55 75 -68 13 -13 24 -21 24 -18 0 3 24 -20 54 -50 30 -30 59
-54 64 -54 4 0 18 -10 29 -22 30 -34 67 -63 76 -60 4 1 7 -5 7 -14 0 -8 4 -12
10 -9 5 3 10 -1 10 -9 0 -9 5 -16 10 -16 6 0 22 -11 35 -25 14 -13 25 -22 25
-20 0 2 11 -7 25 -21 14 -14 25 -29 25 -35 0 -6 4 -8 9 -5 5 3 22 -7 38 -22
17 -15 49 -44 72 -65 22 -20 46 -37 51 -37 6 0 8 -4 5 -10 -3 -5 -1 -10 5 -10
7 0 24 -13 38 -28 15 -16 37 -34 50 -41 12 -7 20 -16 17 -22 -4 -5 -3 -9 2 -8
20 3 34 -2 28 -11 -3 -6 -1 -10 5 -10 6 0 26 -15 44 -32 19 -18 48 -44 64 -58
17 -14 49 -41 72 -60 23 -19 55 -47 71 -62 16 -16 34 -28 39 -28 6 0 8 -5 5
-10 -3 -6 1 -10 9 -10 9 0 16 -4 16 -10 0 -5 7 -10 16 -10 8 0 12 -4 9 -10 -3
-5 -2 -10 2 -10 5 0 27 -15 49 -34 21 -19 46 -41 54 -48 17 -14 64 -12 55 3
-4 5 -2 9 4 9 5 0 39 29 76 65 37 36 64 60 60 53 -4 -7 5 0 19 15 14 15 26 25
26 22 0 -3 18 13 40 35 22 22 40 38 40 35 0 -4 20 14 45 38 25 25 45 43 45 41
0 -2 14 9 31 26 18 16 36 30 41 30 5 0 6 4 3 10 -3 5 -1 10 5 10 7 0 25 14 41
31 16 17 29 28 29 24 0 -4 7 -2 15 5 8 7 12 17 8 24 -3 6 -3 8 1 4 7 -6 52 28
84 64 9 9 19 15 23 12 4 -2 10 5 14 16 3 11 11 20 16 20 6 0 28 17 49 38 71
68 99 92 105 92 13 0 34 28 27 35 -4 5 -2 5 5 2 6 -4 20 4 31 18 11 13 22 22
25 19 3 -3 8 4 12 15 3 12 10 19 14 17 4 -3 25 13 46 34 22 22 45 40 51 40 7
0 16 9 19 20 3 11 13 20 21 20 8 0 14 7 14 16 0 8 5 12 10 9 6 -3 10 -1 10 6
0 7 3 10 6 7 3 -3 28 16 56 43 28 27 56 46 62 42 6 -3 8 -3 4 2 -4 4 18 30 48
59 93 86 204 196 204 202 0 3 11 15 25 26 14 11 23 24 20 29 -4 5 1 9 9 9 8 0
18 9 21 20 3 11 11 20 16 20 6 0 7 6 3 13 -4 6 -4 9 1 5 13 -12 35 12 28 29
-4 9 -2 14 3 11 9 -4 48 30 50 46 1 4 11 19 23 32 12 13 21 28 21 34 0 5 8 14
18 19 9 6 14 11 10 11 -7 0 10 25 39 55 7 7 9 16 5 20 -4 3 1 11 11 16 9 6 17
17 17 24 0 8 5 15 11 15 5 0 7 5 4 10 -3 6 -2 10 3 10 5 0 15 14 22 30 7 17
16 30 21 30 5 0 9 5 9 10 0 6 8 22 17 37 10 14 18 32 19 39 1 8 9 21 18 30 15
14 18 22 15 40 0 4 4 10 11 14 6 4 12 15 14 24 1 10 9 22 17 27 8 5 11 9 6 9
-4 0 -1 10 8 23 8 13 12 27 8 30 -3 4 -1 7 5 7 7 0 12 9 12 20 0 11 5 20 12
20 6 0 8 3 5 7 -4 3 -2 12 3 19 6 6 13 22 15 35 3 12 8 25 12 28 8 6 15 27 16
49 0 6 5 12 10 12 5 0 7 9 4 20 -3 11 -1 18 3 15 8 -5 26 33 22 48 -1 4 3 7 9
7 5 0 7 5 4 10 -3 6 -3 16 2 23 8 12 13 32 15 55 1 6 5 12 10 12 5 0 6 5 3 10
-3 6 -2 10 2 10 5 0 9 8 10 18 2 26 8 45 17 61 5 8 10 28 12 44 1 16 6 32 11
36 5 3 8 18 8 34 -1 15 2 27 5 27 4 0 7 6 8 13 0 6 3 23 6 37 3 14 8 35 10 48
3 12 7 26 10 30 3 5 6 25 8 45 1 21 5 37 8 37 3 0 7 16 8 37 2 20 6 41 9 46 5
9 10 46 15 117 0 8 5 21 11 28 6 7 6 12 0 12 -5 0 -9 10 -7 23 1 12 3 22 4 22
1 0 4 18 6 40 9 93 14 142 18 180 5 41 8 689 3 715 -1 8 -6 20 -10 27 -4 6 -3
14 3 18 6 4 8 11 4 16 -3 5 -7 46 -10 92 -7 128 -11 167 -17 174 -4 3 -2 14 4
24 5 11 6 19 2 19 -5 0 -9 19 -10 43 -3 99 -10 173 -17 185 -4 7 -2 12 4 12 6
0 8 5 5 11 -7 11 -17 118 -19 207 0 28 -3 52 -6 52 -3 0 -6 20 -6 45 1 25 5
45 11 45 5 0 5 4 -2 8 -7 4 -13 47 -16 109 -3 56 -8 106 -11 112 -4 6 -2 11 4
11 6 0 8 5 4 12 -7 11 -14 85 -17 188 -1 25 -6 48 -12 52 -6 5 -5 8 4 8 11 0
11 3 1 15 -10 12 -10 15 1 15 9 0 10 3 4 8 -14 10 -15 62 -1 62 8 0 8 2 0 8
-6 4 -13 14 -16 22 -4 13 -266 15 -2276 15 -1250 1 -2273 1 -2273 0z"/>
</g>
</svg>
